<?xml version="1.0" standalone="no"?>
<!DOCTYPE svg PUBLIC "-//W3C//DTD SVG 1.1//EN" "http://www.w3.org/Graphics/SVG/1.1/DTD/svg11.dtd">
<svg xmlns="http://www.w3.org/2000/svg">
<defs >
<font id="EduQLDBeginner" horiz-adv-x="461" ><font-face
    font-family="Edu QLD Beginner SemiBold"
    units-per-em="1000"
    panose-1="0 0 0 0 0 0 0 0 0 0"
    ascent="1016"
    descent="-244"
    alphabetic="0" />
<glyph unicode=" " horiz-adv-x="335" />
<glyph unicode="!" horiz-adv-x="332" d="M276 726L192 255Q188 233 170 220T133 208Q113 210 99 224T88 261L172 732Q176 750 194 761T229 772Q248 772 264 760T276 726ZM105 -11Q77 -11 59 11T41 58Q41 84 59 105T105 126Q134 126 156 106T178 58Q178 31 156
10T105 -11Z" />
<glyph unicode="&quot;" horiz-adv-x="469" d="M184 556Q162 556 147 571T136 612L156 726Q160 748 177 760T212 772Q233 772 248 757T259 714L238 600Q235 579 218 568T184 556ZM356 556Q344 556 332 561T312 580T307 612L329 731Q333 750 349 761T383 772Q405
772 420 757T432 715L411 597Q409 577 392 567T356 556Z" />
<glyph unicode="#" horiz-adv-x="905" d="M243 0Q223 0 210 12T202 50L305 634Q310 656 325 665T360 675Q380 675 395 663T406 627L303 43Q299 20 280 10T243 0ZM65 208Q65 226 79 238T117 251H735Q760 251 773 239T787 208Q787 190 773 177T735 163H117Q95 163
80 176T65 208ZM540 0Q520 0 504 11T493 50L596 635Q600 656 618 665T655 675Q673 675 687 664T697 627L594 43Q591 20 575 10T540 0ZM112 476Q112 493 126 507T165 521H782Q806 521 820 507T835 476Q835 458 821 446T782 433H165Q141 433 127 445T112 476Z" />
<glyph unicode="$" horiz-adv-x="595" d="M168 -4H52Q27 -4 13 10T-1 44Q-1 63 14 77T52 91H168Q190 91 220 93T281 100T338 115T381 143T398 188Q398 212 384 228T340 262T266 304Q233 323 200 342T140 382T97 430T80 492Q80 545 119 586T225 651T371 675H527Q552
675 566 662T580 628Q580 609 567 595T532 580H370Q339 580 306 575T244 559T198 533T180 498Q180 478 199 461T249 426T319 386Q367 357 408 333T474 275T499 189Q499 137 476 102T416 46T334 14T246 0T168 -4ZM413 713L277 -50Q274 -72 258 -83T223 -95Q205 -95
191 -81T182 -41L316 725Q320 749 336 760T370 772Q389 772 403 757T413 713Z" />
<glyph unicode="%" horiz-adv-x="732" d="M557 610L238 34Q229 17 216 9T187 0Q171 0 157 8T138 30T142 62L459 635Q470 655 483 664T512 674Q528 674 542 666T561 643T557 610ZM484 -5Q468 -5 451 2T424 30T413 87Q413 133 425 170T448 226Q462 251 490 274T560
297Q609 297 635 274T661 209Q661 178 647 141T607 71T550 17T484 -5ZM501 77Q511 77 523 88T548 116T567 153T576 187Q577 203 574 210T557 218Q546 218 537 214T519 193Q509 174 502 154T493 112Q492 100 493 89T501 77ZM135 368Q119 368 102 375T75 403T64 460Q64
505 76 542T99 599Q113 624 141 647T212 670Q260 670 286 647T312 582Q312 551 298 514T258 444T201 390T135 368ZM152 450Q162 450 175 461T199 489T219 525T227 560Q228 575 225 583T208 591Q197 591 188 587T170 566Q160 546 153 526T144 486Q143 473 144 462T152
450Z" />
<glyph unicode="&amp;" horiz-adv-x="736" d="M286 -7Q218 -7 171 23T101 101T77 197Q77 248 103 297T173 388T263 461L298 483Q378 534 418 570T456 637Q455 649 443 657T399 666Q350 666 321 648T289 604Q288 587 298 565T324 518T356 464L582 88Q594 68 594
46T571 6Q557 -4 540 -4T508 6T485 28L266 398Q248 428 227 461T190 530T178 602Q182 645 213 684T294 747T408 771Q446 771 479 759T535 724T564 664Q573 614 547 569T471 481T359 397L313 369Q276 346 248 318T205 261T189 199Q189 149 219 124T292 99Q331 99
362 122T423 185T488 276Q503 296 527 302T571 296Q589 286 592 266T583 225Q535 151 493 99T402 20T286 -7Z" />
<glyph unicode="&apos;" horiz-adv-x="352" d="M210 556Q198 556 186 561T166 580T161 612L183 731Q186 750 202 761T236 772Q259 772 274 757T286 715L265 597Q263 577 246 567T210 556Z" />
<glyph unicode="(" horiz-adv-x="510" d="M290 -351Q274 -362 252 -357T217 -329Q164 -222 135 -114T100 91T106 262Q114 310 139 371T202 498T290 629T398 751Q424 773 447 775T482 765Q493 754 493 736T467 692Q360 585 297 475T214 255Q192 134 208 0T298 -287Q308
-310 305 -325T290 -351Z" />
<glyph unicode=")" horiz-adv-x="510" d="M-31 -319Q-42 -305 -37 -288T-15 -256Q106 -137 166 -17T247 225Q266 333 245 458T159 722Q144 753 150 770T170 795Q187 803 207 793T245 753Q281 680 305 603T343 451T358 311T352 196Q339 123 300 34T196 -147T45
-322Q28 -339 5 -337T-31 -319Z" />
<glyph unicode="*" horiz-adv-x="487" d="M390 664L234 568Q213 556 193 559T164 576Q155 592 162 609T187 639L347 737Q367 748 385 745T412 730Q424 713 417 695T390 664ZM322 572L200 669Q182 683 180 699T189 730Q198 742 218 744T254 733L380 634Q398 620
400 605T392 574Q381 562 362 560T322 572ZM348 734L319 563Q314 538 296 526T261 517Q245 522 236 535T229 571L259 741Q264 763 279 775T310 788Q328 788 340 774T348 734Z" />
<glyph unicode="+" horiz-adv-x="613" d="M346 354L301 96Q298 74 283 64T253 54Q233 54 218 69T207 110L251 368Q256 390 270 400T300 411Q320 411 334 396T346 354ZM407 190H146Q121 190 107 203T92 235Q92 253 106 266T146 279H407Q432 279 445 266T459 235Q459
217 446 204T407 190Z" />
<glyph unicode="," horiz-adv-x="342" d="M81 -120Q62 -117 49 -102T40 -61L61 56Q65 79 82 89T119 98Q140 95 154 81T163 40L142 -77Q138 -101 119 -112T81 -120Z" />
<glyph unicode="-" horiz-adv-x="529" d="M322 189H146Q124 189 109 201T92 231Q92 251 106 266T146 282H322Q347 282 361 269T376 236Q376 217 362 203T322 189Z" />
<glyph unicode="." horiz-adv-x="350" d="M104 -13Q76 -13 56 8T36 55Q36 83 56 102T104 122Q131 122 151 103T171 55Q171 28 151 8T104 -13Z" />
<glyph unicode="/" horiz-adv-x="526" d="M485 708L172 -8Q164 -25 149 -33T118 -42Q94 -42 77 -25T71 20L384 733Q393 754 408 763T439 772Q455 772 468 764T488 741T485 708Z" />
<glyph unicode="0" horiz-adv-x="552" d="M171 -5Q133 -5 106 13T61 62T35 128T26 200Q26 236 33 284T57 386T100 491T162 583T245 650T350 675Q401 675 435 657T489 608T517 541T525 471Q525 410 504 344T446 216T363 104T268 25T171 -5ZM171 92Q190 92 221 111T287
166T353 248T403 353T423 475Q423 506 417 529T396 565T352 578Q311 578 276 552T214 484T168 390T139 288T129 196Q129 139 141 116T171 92Z" />
<glyph unicode="1" horiz-adv-x="395" d="M292 623L189 41Q186 19 170 10T135 0Q114 0 99 13T87 54L189 630Q193 653 210 664T245 675Q266 675 281 661T292 623Z" />
<glyph unicode="2" horiz-adv-x="495" d="M30 0Q8 0 -4 12T-16 43T-1 78L289 404Q322 441 346 480T370 545Q370 562 356 572Q335 584 304 584Q270 584 232 572T165 535Q134 511 112 512T80 525Q67 540 66 558T93 599Q131 631 190 653T306 675Q334 675 359 670T405
651Q439 630 455 606T472 550Q472 510 441 454T345 318Q341 313 323 292T276 241T217 178T158 113T109 58L30 0ZM29 0V91H332Q359 91 371 77T384 44Q384 23 371 12T332 0H29Z" />
<glyph unicode="3" horiz-adv-x="508" d="M-12 101Q-3 118 20 122T67 109Q81 99 95 95T127 90Q165 90 204 105T277 147T330 208T350 280Q350 300 342 314T319 335T280 343Q255 343 224 337T162 311L110 385Q141 401 166 410T212 425T251 431T289 433Q362 433 406
397T450 293Q450 236 421 183T345 87T241 20T125 -5Q94 -5 64 4T10 32Q-17 53 -19 70T-12 101ZM83 537Q75 551 76 570T105 606Q158 642 211 658T311 675Q370 675 408 655T446 594Q446 562 422 526T358 453T266 380T162 311Q141 297 119 302T87 325Q79 341 83 356T110
385Q144 407 185 435T262 490T322 538T346 569Q346 586 319 586Q290 586 246 571T152 522Q133 511 113 515T83 537Z" />
<glyph unicode="4" horiz-adv-x="521" d="M28 205L127 631Q132 654 148 664T183 675Q203 675 219 662T229 624L130 194Q126 175 112 162T76 149Q52 149 38 165T28 205ZM277 0Q257 0 244 17T236 61L290 361Q294 383 313 394T351 402Q370 399 380 385T385 347L331
46Q327 23 313 12T277 0ZM510 197Q510 178 496 164T459 149H76V242H459Q481 242 495 229T510 197Z" />
<glyph unicode="5" horiz-adv-x="480" d="M148 -4Q111 -4 79 8T25 39Q9 53 9 71T18 104Q30 118 47 121T80 111Q92 102 111 95T149 88Q188 88 220 104T275 146T311 200T324 254Q324 289 301 315T225 341Q196 341 167 336T108 321L90 409Q126 422 157 429T221 436Q284
436 330 412T402 347T427 258Q427 214 407 168T349 83T260 20T148 -4ZM60 370L118 631Q124 656 142 666T191 677L219 632L159 363L108 321Q95 317 83 323T63 342T60 370ZM496 633Q496 615 484 603T445 590H178L191 677H445Q469 677 482 666T496 633Z" />
<glyph unicode="6" d="M417 665Q429 651 427 633T401 597Q364 570 331 543T270 484T214 415Q183 370 161 334T127 258T115 164L15 139Q15 210 30 267T72 372T131 466Q162 510 201 551T279 625T346 674Q367 684 386 682T417 665ZM164 -1Q94 -1 55 38T15 139L53
289Q73 326 107 355T184 401T272 419Q339 419 375 388T412 296Q412 250 392 199T335 102T255 28T164 -1ZM162 91Q186 91 212 110T262 161T300 226T315 290Q315 311 305 321T270 331Q220 331 186 307T133 244T115 164Q115 126 128 109T162 91Z" />
<glyph unicode="7" horiz-adv-x="458" d="M245 0Q224 0 211 15T200 54L308 642L359 675Q415 675 406 622L300 45Q296 23 279 12T245 0ZM26 632Q26 651 40 663T78 675H359V591H78Q54 591 40 602T26 632Z" />
<glyph unicode="8" horiz-adv-x="464" d="M192 85Q158 85 139 110T119 173Q119 192 129 216T167 272T246 341Q281 366 317 393T385 450T436 508T456 566Q456 594 440 615T397 649T341 669T283 676Q250 676 214 666T147 636T98 586T79 513Q79 472 97 442T137 389T174
350L208 314Q224 296 242 273T273 225T287 176Q287 155 275 134T241 99T192 85ZM186 -5Q235 -5 273 13T337 59T375 120T389 184Q389 219 374 253T333 319T280 377L247 410Q234 424 218 439T191 474T180 519Q180 544 193 559T225 582T266 589Q286 589 307 587T343
580T358 565Q358 557 340 539T293 498T233 452T177 410Q118 367 84 323T34 239T19 165Q19 138 27 109T54 53T106 11T186 -5Z" />
<glyph unicode="9" horiz-adv-x="517" d="M41 346Q41 380 49 425T73 513T108 586Q132 622 163 641T230 667T301 675H420V583H395H301Q274 583 243 574T189 530Q176 510 166 479T151 419T146 373Q146 365 148 356T156 347Q163 347 181 366T226 416T280 484T334
559T378 626H459Q441 588 417 545T362 458T301 376T238 305T177 257T123 239Q88 239 65 265T41 346ZM317 -4Q301 -4 284 8T271 45L365 560V675H440Q464 675 474 662T479 614L374 39Q370 19 353 8T317 -4Z" />
<glyph unicode=":" horiz-adv-x="364" d="M107 -12Q78 -12 59 9T40 56Q40 84 59 103T107 123Q135 123 155 104T176 56Q176 29 156 9T107 -12ZM154 270Q126 270 107 291T87 340Q87 366 106 386T154 406Q181 406 201 387T222 341Q222 313 202 292T154 270Z" />
<glyph unicode=";" horiz-adv-x="362" d="M93 -121Q72 -119 58 -104T47 -61L67 56Q72 79 89 89T126 98Q147 95 161 81T170 40L149 -77Q146 -100 129 -111T93 -121ZM160 264Q131 264 113 286T94 333Q94 359 112 379T160 399Q186 399 206 380T227 333Q227 307 207
286T160 264Z" />
<glyph unicode="&lt;" horiz-adv-x="582" d="M153 185L99 259L380 408Q405 421 425 412T450 384Q455 367 448 352T416 324L153 185ZM323 63L118 194Q99 207 96 222T103 255Q114 272 134 276T173 267L379 137Q399 122 403 105T394 69Q383 55 364 53T323 63Z" />
<glyph unicode="=" horiz-adv-x="614" d="M426 295H164Q140 295 125 308T110 339Q110 357 125 371T164 385H426Q450 385 464 371T479 339Q479 321 465 308T426 295ZM395 115H133Q109 115 95 129T80 162Q80 180 94 192T133 205H395Q419 205 433 193T448 162Q448
143 434 129T395 115Z" />
<glyph unicode="&gt;" horiz-adv-x="581" d="M422 208L140 58Q115 46 96 55T70 83Q65 100 72 115T104 143L368 282L422 208ZM347 200L142 330Q122 345 118 363T126 398Q138 412 157 414T197 404L402 273Q423 260 425 245T418 212Q407 196 387 192T347 200Z" />
<glyph unicode="?" horiz-adv-x="576" d="M148 523Q131 527 123 543T119 587Q134 670 193 723T357 777Q414 777 458 751T524 680T537 583Q523 503 487 442T385 347T219 319L239 412Q299 409 336 428T395 477T425 540T439 596Q444 625 433 644T398 674T341 684Q302
684 276 668T236 625T217 568Q213 542 191 530T148 523ZM187 -12Q159 -12 140 9T120 56Q120 83 139 104T187 125Q215 125 236 105T257 56Q257 29 236 9T187 -12ZM211 209Q189 213 178 230T170 267L190 375Q193 392 207 402T239 412L289 369L269 260Q265 234 248
220T211 209Z" />
<glyph unicode="@" horiz-adv-x="845" d="M265 -1Q230 -1 214 22T197 97Q197 130 205 173T226 258T258 328Q292 380 342 398T443 416H544V326H443Q418 326 389 316T337 273Q325 255 316 225T301 166T295 120Q295 114 296 102T304 89Q309 89 323 96T362 123T418
184Q453 228 486 275T543 363H595Q571 293 533 232T455 120Q431 92 401 64T337 18T265 -1ZM268 -149Q193 -149 144 -125T69 -59T37 39T41 156Q50 213 69 277T122 401T212 501Q250 530 301 546T407 568T512 575Q616 575 683 540T777 438T783 274Q772 220 747 170T689
82T620 22T548 -1Q513 -1 488 24T462 99Q462 117 464 138T471 180L513 416H563Q585 416 596 404T603 369L571 194Q570 189 568 170T564 139Q564 133 562 121T561 99T567 89Q572 89 588 105T625 151T662 219T688 298Q706 391 664 436T509 481Q465 481 420 476T335
459T265 423Q232 399 210 364T174 289T151 214T138 150Q123 57 154 0T264 -57Q292 -57 324 -50T389 -19Q415 -2 433 -6T460 -24Q473 -43 468 -63T421 -110Q393 -129 355 -139T268 -149Z" />
<glyph unicode="A" horiz-adv-x="614" d="M27 0Q4 0 -11 17T-11 62L339 735Q348 751 362 761T404 772Q429 772 444 760T460 723L416 721L347 551L85 37Q75 16 62 8T27 0ZM166 309L210 397H437L445 309H166ZM472 0Q447 0 435 12T421 43L380 549L385 719L461 725L519
49Q521 25 508 13T472 0Z" />
<glyph unicode="B" horiz-adv-x="642" d="M609 554Q602 503 581 464T512 399T382 359T167 345L180 425Q288 425 352 435T447 465T490 508T506 559Q509 589 495 612T444 650T343 672T185 679L198 772Q417 772 520 721T609 554ZM548 183Q541 130 514 94T432 38T289
9T71 0L92 93Q216 93 292 103T405 136T447 200Q453 244 426 276T334 325T161 343L174 425Q260 425 332 410T456 364T532 289T548 183ZM27 56L145 728Q150 754 164 763T198 772L248 718L130 47L72 0Q51 0 38 16T27 56Z" />
<glyph unicode="C" horiz-adv-x="627" d="M224 -5Q159 -5 121 22T67 91T51 174Q51 202 54 238T62 308T71 369T77 404Q87 460 103 513T149 613T226 695T342 751T510 772Q544 772 565 772T600 769T620 762Q639 749 638 725T616 689Q609 686 597 683T564 680T508
679Q432 679 380 664T292 623T236 562T203 489T183 409Q180 388 173 347T160 260T154 173Q154 151 162 132T187 101T229 89Q276 89 327 124T444 253Q463 279 476 289T508 299Q526 299 540 288T554 258Q554 251 551 240T526 198Q455 91 377 43T224 -5Z" />
<glyph unicode="D" horiz-adv-x="651" d="M594 415Q576 283 517 191T367 49T162 0H73L93 92H162Q249 92 319 128T435 237T494 416Q504 495 480 554T400 645T260 677H191L200 772H254Q340 772 407 747T519 674T585 561T594 415ZM27 51L147 728Q150 750 162 761T201
772Q225 772 240 762T249 719L130 44Q127 25 113 13T75 0Q50 0 37 14T27 51Z" />
<glyph unicode="E" horiz-adv-x="612" d="M27 52L147 730Q150 752 163 762T202 772Q226 772 239 760T248 716L130 43Q126 26 110 13T66 0Q42 0 33 15T27 52ZM518 51Q518 28 505 14T467 0H73L87 98H468Q494 98 506 86T518 51ZM544 376Q544 357 530 343T489 328H128L144
423H493Q518 423 531 410T544 376ZM638 727Q638 707 624 691T586 675H192L208 772H587Q612 772 625 759T638 727Z" />
<glyph unicode="F" horiz-adv-x="598" d="M27 55L147 729Q150 751 162 761T200 772Q224 772 238 760T248 716L131 53Q128 31 112 16T66 0Q41 0 33 17T27 55ZM534 372Q534 353 522 340T484 327H128L144 421H485Q511 421 522 407T534 372ZM626 725Q626 703 611 689T570
675H182L200 772H575Q600 772 613 759T626 725Z" />
<glyph unicode="G" horiz-adv-x="617" d="M174 -5Q127 -5 100 22T62 92T51 176Q51 203 54 238T62 308T71 369T77 404Q87 460 103 513T149 613T224 695T340 751T508 772H574Q594 772 607 759T620 727Q620 708 606 694T570 680H506Q430 680 378 665T290 623T235
564T203 495T185 424Q180 393 172 350T158 260T152 178Q152 153 155 133T166 100T186 87Q206 87 230 104T278 149T327 208T370 269T402 317Q428 357 444 380T471 415T492 430T518 434L505 318Q472 265 433 209T352 104T265 25T174 -5ZM449 0Q422 0 410 14T400 51L459
387Q462 402 475 418T517 434Q542 434 553 420T560 381L501 45Q497 26 488 13T449 0Z" />
<glyph unicode="H" horiz-adv-x="673" d="M75 0Q50 0 37 14T27 51L145 728Q150 750 166 761T205 772Q228 772 240 758T248 716L130 43Q128 28 116 14T75 0ZM135 335L151 428H545L529 335H135ZM471 0Q445 0 434 15T425 51L543 733Q547 750 561 761T598 772Q623
772 636 758T646 719L527 39Q524 24 510 12T471 0Z" />
<glyph unicode="I" horiz-adv-x="368" d="M80 64L191 705H295L184 64H80ZM25 41Q27 60 39 71T78 83H192Q213 83 222 72T229 41Q226 23 216 12T179 0H65Q44 0 33 11T25 41ZM148 732Q151 751 162 761T199 772H312Q332 772 343 762T352 732Q349 714 338 701T301 688H187Q167
688 156 701T148 732Z" />
<glyph unicode="J" horiz-adv-x="559" d="M-50 47Q-50 67 -34 80T1 93Q10 93 29 93T69 94T109 96T139 98Q177 103 202 129T245 210T278 353L340 717H445L379 337Q361 235 335 165T263 54T143 5Q132 4 105 3T49 1T1 0Q-18 0 -34 13T-50 47ZM178 723Q178 744 191
758T229 772H564Q588 772 601 758T615 723Q615 703 602 689T563 675H228Q205 675 192 688T178 723Z" />
<glyph unicode="K" horiz-adv-x="605" d="M616 725Q616 714 608 702T589 680L251 387L162 394V425L254 514L519 751Q532 762 547 767T575 772Q597 772 608 758T616 725ZM475 0Q460 0 446 7T423 28L214 329L162 412V446L267 433L514 78Q522 66 524 54T524 32Q520
16 506 8T475 0ZM77 0Q52 0 38 17T28 57L148 728Q152 750 167 761T205 772Q226 772 240 759T249 716L131 49Q128 29 116 15T77 0Z" />
<glyph unicode="L" horiz-adv-x="570" d="M27 51L147 728Q150 750 166 761T206 772Q228 772 241 760T249 716L130 42Q127 25 113 13T72 0Q48 0 36 14T27 51ZM518 48Q518 29 505 15T467 0H72L86 93H467Q491 93 504 80T518 48Z" />
<glyph unicode="M" horiz-adv-x="981" d="M13 0Q1 0 -11 6T-28 22Q-34 31 -33 43T-23 76L320 736Q329 753 338 762T370 772L387 671L311 503L73 37Q64 17 46 9T13 0ZM377 54L340 503L338 672L370 772Q400 772 410 760T422 726L456 290L467 98L429 0Q404 0 391
14T377 54ZM494 46Q485 29 473 15T429 0L421 94L502 283L736 734Q745 752 759 762T796 772L801 679L724 504L494 46ZM848 0Q823 0 811 14T796 49L761 501L754 682L796 772Q826 772 834 760T843 725L895 55Q897 30 884 15T848 0Z" />
<glyph unicode="N" horiz-adv-x="664" d="M420 30L237 497L171 683L196 772Q213 772 227 764T246 740L427 279L474 134L471 0Q451 0 438 8T420 30ZM72 0Q49 0 36 14T27 51L145 728Q150 750 162 761T196 772L239 709L210 497L130 45Q127 28 113 14T72 0ZM594 775Q619
775 630 759T637 716L519 43Q516 24 506 12T470 0L432 107L457 280L535 728Q539 750 554 762T594 775Z" />
<glyph unicode="O" horiz-adv-x="639" d="M212 -12Q168 -12 137 15T88 92T64 204T66 338T91 482Q113 571 148 637T238 741T372 779Q436 779 481 757T555 697T594 610T600 508Q593 443 569 372T506 232T421 108T320 21T212 -12ZM216 81Q245 81 280 107T350 178T417
278T470 391T496 504Q498 535 496 566T482 625T442 669T368 685Q316 685 282 658T227 578T189 448Q180 403 175 353T168 254T171 167T187 105T216 81Z" />
<glyph unicode="P" horiz-adv-x="625" d="M618 558Q608 483 566 439T457 372T309 343T138 335L150 428Q222 428 286 434T400 454T481 496T517 564Q523 606 495 632T392 670T185 681L201 774Q343 776 440 755T583 685T618 558ZM75 -6Q48 -6 36 11T26 50L145 728Q150
750 163 762T201 774Q223 774 237 761T246 716L127 42Q124 25 113 10T75 -6Z" />
<glyph unicode="Q" horiz-adv-x="652" d="M452 -51Q435 -61 414 -55T377 -27L259 145Q245 167 247 185T265 216Q280 228 303 223T342 197L464 20Q476 1 474 -19T452 -51ZM222 -11Q175 -11 142 17T89 94T64 206T64 340T89 483Q112 572 148 638T241 742T380 779Q446
779 493 757T568 696T608 608T615 507Q608 442 584 371T521 232T434 109T332 22T222 -11ZM225 82Q255 82 291 108T364 179T431 278T484 391T511 503Q513 534 511 566T495 625T455 669T379 685Q321 685 285 658T227 579T188 449Q179 404 174 354T168 255T173 168T192
106T225 82Z" />
<glyph unicode="R" horiz-adv-x="626" d="M600 558Q588 483 547 438T443 371T304 342T141 334L155 411Q248 412 322 427T444 476T500 561Q508 603 481 629T391 668T221 679L205 772Q335 772 428 752T568 684T600 558ZM479 0Q469 0 454 5T426 25L207 290L156 378L264
381L520 74Q528 65 528 53T526 30Q522 16 508 8T479 0ZM69 0Q44 0 34 17T28 57L147 728Q150 750 164 761T204 772Q227 772 240 760T248 716L132 56Q129 33 112 17T69 0Z" />
<glyph unicode="S" horiz-adv-x="531" d="M144 0H30Q24 0 12 3T-9 16T-19 45Q-19 66 -5 80T30 94H146Q182 94 219 101T289 125T342 166T362 225Q362 268 334 301T250 374L222 394Q182 422 150 449T98 507T78 578Q78 634 114 677T214 746T359 772H502Q511 772 522
769T543 756T552 726Q552 707 538 693T503 678H360Q315 678 274 667T207 634T181 583Q181 555 208 529T291 464L318 445Q356 419 389 388T444 318T466 225Q466 178 446 142T393 79T318 35T231 9T144 0Z" />
<glyph unicode="T" horiz-adv-x="576" d="M224 -1Q200 -1 187 14T176 51L292 720H397L279 42Q276 25 264 12T224 -1ZM44 727Q44 747 58 761T96 775H600Q624 775 637 761T651 727Q651 709 638 696T600 682H96Q70 682 57 695T44 727Z" />
<glyph unicode="U" horiz-adv-x="671" d="M155 -5Q94 -5 64 51T55 228L145 725Q147 740 162 756T202 772Q225 772 238 757T248 720L158 218Q152 183 149 153T151 106T172 88Q197 88 226 110T284 168T341 242T389 317T422 374Q435 397 450 429T481 498T508 571T526
638H610L571 456L517 391Q482 319 441 249T353 122T258 30T155 -5ZM471 0Q449 0 434 13T423 51L542 732Q545 749 559 760T596 772Q624 772 636 758T645 722L525 39Q522 20 506 10T471 0Z" />
<glyph unicode="V" horiz-adv-x="540" d="M238 37Q231 22 220 11T185 -1L159 64L242 268L474 737Q482 754 498 763T536 772Q560 770 572 753T570 707L238 37ZM132 49L94 724Q93 747 106 759T141 772Q168 772 181 760T195 730L219 273L215 67L185 -1Q161 -1 148
13T132 49Z" />
<glyph unicode="W" horiz-adv-x="944" d="M647 37Q639 19 628 10T594 0L566 74L661 278L881 735Q889 753 905 763T947 771Q959 771 968 761T981 735T977 702L647 37ZM138 47L94 724Q93 747 106 759T142 772Q169 772 181 760T195 730L220 271L224 77L194 0Q169
0 155 12T138 47ZM248 42Q239 23 229 12T194 0L165 78L254 270L485 737Q490 748 501 760T539 772L567 700L475 500L248 42ZM544 40L512 497L507 702L539 772Q567 772 579 761T594 730L625 282L629 74L594 0Q577 0 562 11T544 40Z" />
<glyph unicode="X" horiz-adv-x="544" d="M-12 13Q-26 25 -26 40T-16 72L238 422L266 441L491 752Q505 772 528 772T565 761Q580 749 582 733T570 697L307 331L280 315L67 17Q58 5 43 1T13 1T-12 13ZM425 6Q408 -3 384 3T350 33L100 705Q91 730 97 746T123 770Q141
775 162 771T193 743L447 67Q456 45 449 30T425 6Z" />
<glyph unicode="Y" horiz-adv-x="537" d="M556 767Q572 757 576 738T564 697L279 314L235 411L312 520L483 753Q498 773 519 775T556 767ZM215 -1Q190 -1 176 14T166 51L233 434H337L269 43Q266 27 254 13T215 -1ZM123 771Q140 779 161 773T191 741L275 522L315
407L246 329L99 707Q90 730 98 746T123 771Z" />
<glyph unicode="Z" horiz-adv-x="558" d="M-8 79L493 752Q500 762 510 768T534 775Q555 775 568 763T584 732T573 695L73 21Q68 13 57 7T26 0Q10 0 -3 12T-18 43T-8 79ZM473 45Q473 27 460 14T421 0H26V81L177 93H421Q446 93 459 79T473 45ZM101 727Q101 747 115
761T152 775H534V691L391 682H152Q127 682 114 695T101 727Z" />
<glyph unicode="[" horiz-adv-x="452" d="M286 719L104 -309Q101 -326 90 -341T51 -356Q24 -356 10 -342T0 -305L183 728Q187 750 201 761T241 772Q263 772 277 761T286 719ZM48 -356L60 -268H214Q239 -268 255 -279T268 -313Q265 -332 252 -344T214 -356H48ZM228
684L238 772H398Q422 772 438 760T451 726Q448 708 434 696T398 684H228Z" />
<glyph unicode="\" horiz-adv-x="526" d="M186 733L492 28Q502 6 494 -13T467 -38Q448 -45 427 -39T395 -8L90 695Q79 722 88 742T115 768Q134 774 154 767T186 733Z" />
<glyph unicode="]" horiz-adv-x="452" d="M384 721L201 -312Q198 -334 184 -345T144 -356Q121 -356 107 -345T99 -299L281 729Q284 746 295 759T333 772Q361 772 374 758T384 721ZM145 -356H-13Q-39 -356 -53 -343T-66 -311Q-63 -293 -49 -281T-13 -268H160L145
-356ZM319 684H171Q146 684 130 696T117 727Q121 748 133 760T171 772H336L319 684Z" />
<glyph unicode="^" horiz-adv-x="522" d="M147 340Q127 325 112 328T86 343Q75 356 75 372T90 402L251 537Q268 552 286 550T314 534L431 396Q443 381 441 364T426 336Q415 326 398 325T367 341L257 470L296 468L147 340Z" />
<glyph unicode="_" horiz-adv-x="697" d="M437 -111H93Q70 -111 55 -98T39 -65Q39 -46 54 -33T93 -19H437Q462 -19 476 -32T491 -64Q491 -83 477 -97T437 -111Z" />
<glyph unicode="`" horiz-adv-x="427" d="M333 630Q320 621 302 627T270 654L203 759Q192 776 195 793T210 821T236 832Q256 832 274 823T301 789L345 685Q362 646 333 630Z" />
<glyph unicode="a" horiz-adv-x="473" d="M64 -5Q32 -5 15 19T-2 97Q-2 130 6 173T29 258T62 328Q97 379 147 397T248 416H351V324H248Q223 324 193 315T141 273Q129 253 119 223T102 164T96 114Q96 107 97 98T105 88Q113 88 140 110T216 194Q251 238 277 280T328
363H397Q382 328 362 292T321 222T279 157Q251 112 215 76T140 17T64 -5ZM304 0Q278 0 267 14T259 45L304 290V416H372Q395 416 406 400T413 357L358 39Q355 29 345 15T304 0Z" />
<glyph unicode="b" horiz-adv-x="493" d="M191 0H67V90H191Q230 90 258 107T304 154T332 221T341 299Q341 310 340 319T330 328Q321 328 301 311T255 264T202 200T150 128T109 59H67V118Q86 158 113 200T171 282T236 353T301 402T361 421Q396 421 417 398T439
319Q439 266 427 210T387 107T311 30T191 0ZM45 0Q25 0 14 13T6 45L125 726Q130 752 148 762T183 772Q203 772 215 759T222 719L110 119L113 0H45Z" />
<glyph unicode="c" horiz-adv-x="382" d="M86 -5Q49 -5 24 20T-2 101Q-2 132 6 174T28 258T61 328Q96 380 160 401T304 418Q324 417 336 404T349 373Q349 356 336 342T304 329Q244 334 201 322T135 276Q125 262 117 241T103 197T93 154T89 121Q89 110 92 100T107
89Q121 89 139 102T175 132T206 166T224 191Q237 208 258 212T295 207Q310 198 311 180T303 145Q278 103 242 69T165 15T86 -5Z" />
<glyph unicode="d" horiz-adv-x="580" d="M389 0Q348 1 328 35T305 126T313 254L395 725Q400 750 415 761T450 772Q471 772 485 760T494 722L394 169Q391 150 391 135T393 110T401 101Q410 101 417 106T430 120L445 141Q453 154 463 162T483 171Q500 171 513 160T526
128Q526 118 522 102T501 66Q476 34 451 17T389 0ZM70 -5Q37 -5 18 19T-2 96Q-2 129 6 172T29 257T63 328Q97 379 147 397T254 416H389L368 323H254Q225 323 194 315T142 274Q129 255 119 225T102 165T96 117Q96 110 97 99T106 88Q116 88 147 112T222 189Q254 229
282 275T335 363H416Q403 323 379 280T329 197T278 129Q250 93 215 63T144 14T70 -5Z" />
<glyph unicode="e" horiz-adv-x="390" d="M130 -5Q99 -5 68 8T17 51T2 136Q5 170 14 207T37 278T68 338Q99 383 142 401T229 420Q261 420 287 410T330 383T346 340Q346 319 328 291T280 235T216 189Q195 178 167 163T108 132T49 104L63 187Q74 193 93 203T134
226T174 250Q215 275 233 295T252 329Q252 336 244 340T226 345Q210 345 187 331T147 290Q132 269 121 242T104 186T96 134Q96 115 105 100T137 84Q155 84 171 91T199 108T218 127Q236 149 255 154T289 147Q303 136 305 116T289 71Q284 64 264 46T210 11T130 -5Z"
/>
<glyph unicode="f" horiz-adv-x="317" d="M95 0Q69 0 55 17T44 54L144 619Q154 675 178 708T235 757T301 772H404Q427 772 441 758T455 727Q455 710 441 694T404 678H301Q288 678 276 667T255 639T241 601L142 47Q140 29 129 15T95 0ZM-6 372Q-6 390 6 403T45
416H265Q291 416 303 403T316 372Q316 352 303 340T265 328H45Q19 328 7 340T-6 372Z" />
<glyph unicode="g" horiz-adv-x="494" d="M-73 -309Q-73 -289 -55 -276T-12 -263Q-6 -263 13 -262T55 -260T100 -256T132 -253Q166 -249 185 -236T219 -199Q241 -162 252 -108T274 5L315 230L348 416H387Q413 416 425 401T432 354L369 -1Q356 -73 345 -137T304
-250Q281 -288 243 -312T154 -344Q139 -346 116 -348T67 -352T21 -355T-7 -356Q-39 -356 -56 -342T-73 -309ZM0 97Q0 135 8 178T32 262T65 330Q88 364 121 382T190 408T259 416H381V324H259Q227 324 196 317T144 276Q130 257 120 225T103 162T97 119Q97 108 99
98T107 88Q114 88 133 100T178 136T229 193Q260 232 291 277T348 364H413Q378 296 341 233T260 116Q240 90 213 62T152 14T79 -5Q46 -5 23 19T0 97Z" />
<glyph unicode="h" horiz-adv-x="514" d="M50 0Q28 1 15 14T6 50L125 728Q129 751 146 763T182 775Q203 775 216 761T225 721L104 37Q100 18 85 9T50 0ZM343 0Q319 0 310 14T303 46L345 275Q348 290 349 304T347 328T332 337Q322 337 302 319T257 269T205 198T151
118T104 37L82 137Q100 164 122 200T170 275T225 347T286 400T355 421Q395 421 416 399T443 341T443 268L401 39Q399 29 386 15T343 0Z" />
<glyph unicode="i" horiz-adv-x="240" d="M53 0Q33 0 20 14T10 51L66 368Q70 390 85 403T121 416Q140 416 154 400T165 357L109 41Q106 19 89 10T53 0ZM151 495Q128 495 112 512T95 553Q95 576 111 593T151 610Q174 610 191 594T209 553Q209 529 192 512T151 495Z" />
<glyph unicode="j" horiz-adv-x="243" d="M-329 -311Q-329 -291 -311 -276T-263 -261Q-255 -261 -238 -261T-201 -261T-164 -261T-137 -259Q-102 -254 -82 -241T-48 -204Q-27 -167 -17 -112T3 2L66 368Q70 393 87 404T121 416Q142 416 155 401T164 357L99 -5Q91
-52 84 -97T67 -182T36 -256Q13 -292 -24 -317T-113 -350Q-128 -352 -149 -353T-194 -355T-237 -356T-264 -356Q-295 -356 -312 -344T-329 -311ZM151 495Q128 495 112 512T95 553Q95 577 111 594T151 611Q174 611 191 595T209 553Q209 529 192 512T151 495Z" />
<glyph unicode="k" horiz-adv-x="496" d="M50 0Q30 0 17 14T7 50L125 727Q129 750 144 762T178 775Q202 775 215 761T224 719L106 43Q102 20 87 10T50 0ZM357 0Q343 0 330 8T307 29L203 179Q194 192 199 205T218 226Q255 247 278 265T313 298T325 323Q325 330
320 335T306 340Q291 340 265 322T205 272T138 195T75 100L89 241Q124 288 164 329T245 396T325 421Q356 421 377 409T408 377T419 338Q419 297 390 263T311 195L395 75Q403 63 405 53T403 34Q400 18 387 9T357 0Z" />
<glyph unicode="l" horiz-adv-x="246" d="M68 0Q49 0 32 12T20 52L140 732Q144 754 159 763T191 772Q212 772 229 759T241 720L123 45Q119 23 103 12T68 0Z" />
<glyph unicode="m" horiz-adv-x="768" d="M36 0Q9 1 0 15T-6 50L51 371Q52 379 58 389T76 408T111 416Q136 416 145 403T150 366L91 36Q83 20 74 10T36 0ZM320 0Q292 0 282 14T275 50L316 275Q319 290 320 304T320 328T307 337Q294 337 274 317T228 264T177 192T129
112T91 36L83 169Q106 208 132 251T190 333T254 396T326 420Q367 420 388 398T416 340T415 267L372 41Q368 25 358 13T320 0ZM597 0Q571 0 560 14T552 48L594 275Q597 290 598 304T597 328T584 337Q571 337 550 317T503 264T453 191T405 111T368 37L359 169Q382
208 408 251T466 333T531 396T604 421Q644 421 666 399T693 341T692 268L652 44Q648 27 637 14T597 0Z" />
<glyph unicode="n" horiz-adv-x="491" d="M324 0Q297 0 287 14T279 48L321 275Q324 290 325 304T324 328T311 337Q298 337 276 317T228 262T175 188T127 108T91 36L83 171Q106 210 133 253T191 334T257 397T331 421Q372 421 393 399T421 341T420 268L378 44Q376
27 365 14T324 0ZM36 0Q9 1 0 15T-6 50L51 371Q52 379 58 389T76 408T111 416Q136 416 145 403T150 366L91 36Q83 19 74 10T36 0Z" />
<glyph unicode="o" horiz-adv-x="425" d="M113 -6Q85 -6 59 7T18 49T2 125Q2 182 19 235T66 329T136 395T222 420Q266 420 302 405T359 362T374 297Q369 261 354 221T313 140T257 67T189 14T113 -6ZM126 87Q145 87 169 107T217 158T256 223T275 283Q277 303 261
314T222 326Q201 326 179 307T139 258T110 195T99 133Q99 110 107 99T126 87Z" />
<glyph unicode="p" horiz-adv-x="479" d="M-24 -359Q-45 -359 -59 -345T-69 -309L51 373Q55 394 73 405T108 416Q130 416 142 401T150 364L29 -317Q26 -336 10 -347T-24 -359ZM425 319Q425 262 412 206T371 103T295 28T178 0H54L56 91H178Q224 91 257 118T308
194T326 305Q326 312 325 320T315 328Q304 328 283 310T234 261T179 194T127 120T87 52H31Q41 102 67 154T128 253T202 339T279 399T350 421Q387 421 406 397T425 319Z" />
<glyph unicode="q" horiz-adv-x="502" d="M-1 97Q-1 130 6 173T28 257T62 327Q96 378 146 397T246 416H361V324H246Q219 324 190 315T140 273Q128 253 118 224T102 166T97 116Q97 110 98 100T106 90Q116 90 143 111T219 194Q254 238 280 280T330 362H396Q381 316
363 280T323 210T274 144Q243 105 209 71T138 16T65 -5Q33 -5 16 19T-1 97ZM428 -167Q438 -179 438 -198T418 -235L307 -329L264 -246L361 -165Q379 -149 398 -151T428 -167ZM252 -356Q232 -356 221 -342T214 -303L345 416H382Q409 416 420 402T429 368L307 -329Q294
-340 281 -348T252 -356Z" />
<glyph unicode="r" horiz-adv-x="414" d="M349 260Q330 259 317 269T300 295Q299 303 294 312T279 321Q266 321 236 294T164 208T68 58L83 226Q123 287 159 331T232 398T307 421Q334 421 352 403T380 359T389 307Q389 286 379 273T349 260ZM40 0Q21 0 6 13T-7
50L50 372Q55 393 72 404T106 416Q126 416 139 401T148 360L93 44Q89 23 74 12T40 0Z" />
<glyph unicode="s" horiz-adv-x="378" d="M128 0H36Q13 0 -2 11T-18 45Q-18 69 -2 80T37 91H131Q164 91 178 97T194 116Q196 126 191 133T176 146L97 199Q72 216 51 241T30 305Q31 339 51 364T104 402T177 416H266Q299 416 317 407T335 370Q335 348 319 336T283
323H176Q151 323 140 318T128 306Q128 299 134 293T152 278L247 212Q269 197 283 169T294 104Q289 67 264 44T203 11T128 0Z" />
<glyph unicode="t" horiz-adv-x="351" d="M111 0Q90 0 74 11T62 46L166 637Q170 655 185 665T216 675Q238 675 253 665T265 627L161 38Q158 17 144 9T111 0ZM11 372Q11 391 24 403T62 416H292Q318 416 331 404T344 372Q344 353 331 341T292 328H62Q37 328 24 340T11 372Z" />
<glyph unicode="u" horiz-adv-x="494" d="M96 -5Q57 -5 35 17T8 75T9 148L49 371Q51 390 64 403T103 416Q128 416 140 402T148 369L107 140Q104 126 103 112T104 88T116 79Q130 79 152 99T200 154T253 228T301 308T337 379L348 253Q332 226 312 192T267 123T216
59T159 13T96 -5ZM317 0Q293 0 284 13T278 52L337 379Q345 396 355 406T392 416Q419 416 428 403T434 369L376 47Q375 38 369 27T351 8T317 0Z" />
<glyph unicode="v" horiz-adv-x="500" d="M85 -5Q51 -5 32 13T8 64T9 138L50 371Q55 393 73 405T108 417Q130 417 142 402T151 361L116 174Q109 129 109 106T119 83Q130 83 155 108T213 174T276 266T332 368Q344 393 357 405T392 417Q404 417 414 413T430 399L423
332Q379 254 338 192T257 85T175 18T85 -5ZM488 235Q472 224 450 227T411 254L353 338L430 399L494 305Q508 284 505 265T488 235Z" />
<glyph unicode="w" horiz-adv-x="785" d="M368 -6Q319 -6 301 34T293 133L329 316L392 416Q412 416 427 403T437 361L396 134Q392 108 392 95T402 82Q412 82 429 97T468 141T515 206T567 286T619 373Q633 398 644 407T679 416Q690 416 699 411T714 399L693 301Q662
252 632 207T572 124T510 56T443 11T368 -6ZM86 -5Q42 -5 20 32T9 135L50 367Q55 393 72 404T110 416Q130 416 144 402T154 361L115 146Q110 124 110 104T121 83Q130 83 154 108T210 175T274 267T331 367Q347 397 360 406T392 416L399 317Q367 254 334 203T267
113T203 48T142 9T86 -5ZM772 235Q757 224 735 227T696 254L636 338L714 399L778 305Q793 283 790 265T772 235Z" />
<glyph unicode="x" horiz-adv-x="443" d="M-8 14Q-21 26 -22 44T-5 81L158 241L179 252L331 400Q350 418 370 417T403 402Q416 391 417 373T401 337L236 177L216 164L66 17Q47 -1 26 0T-8 14ZM336 12Q322 0 302 0T266 22L159 177L47 339Q34 359 37 376T56 405Q71
417 91 415T125 393L236 234L344 77Q357 60 354 43T336 12Z" />
<glyph unicode="y" horiz-adv-x="496" d="M-70 -311Q-70 -291 -58 -276T-16 -261Q-7 -261 12 -261T55 -261T98 -260T127 -258Q157 -255 180 -241T217 -204Q239 -167 249 -112T269 2L333 370Q338 393 352 404T391 416Q419 416 428 402T431 359L369 -5Q356 -77 344
-141T300 -255Q273 -294 236 -318T152 -348Q137 -350 113 -351T62 -354T14 -355T-17 -356Q-47 -356 -58 -344T-70 -311ZM89 -5Q50 -5 31 17T8 73T11 148L50 370Q55 393 69 404T107 416Q133 416 143 402T149 363L110 140Q108 126 107 112T108 88T119 79Q133 79 154
97T199 147T249 216T296 294T333 370L345 232Q327 197 305 163T258 98T206 44T149 8T89 -5Z" />
<glyph unicode="z" horiz-adv-x="447" d="M-20 45Q-20 64 -3 81L320 396L354 416Q378 416 391 404T405 373Q405 361 401 354T388 339L67 22L28 0Q7 0 -6 13T-20 45ZM355 45Q355 27 343 14T305 0H28L67 90H305Q330 90 342 77T355 45ZM39 368Q39 387 51 401T89 416H354L311
322H89Q64 322 52 336T39 368Z" />
<glyph unicode="{" horiz-adv-x="480" d="M86 247Q88 264 97 273T125 297Q146 316 158 334T175 376Q180 399 180 432T181 504T186 580T201 645Q215 679 243 702T300 741T349 764Q369 773 392 771T422 747Q429 729 420 714T390 690Q361 683 330 667T284 614Q274
591 271 558T268 488T269 419T266 362Q257 320 242 289T192 230Q214 193 219 156T220 77Q217 53 207 21T184 -45T163 -112T154 -171Q156 -200 163 -220T184 -256T213 -286Q227 -300 232 -315T224 -346Q212 -361 191 -361T151 -342Q134 -324 115 -299T81 -242T64
-175Q63 -146 71 -110T92 -36T115 34T129 91Q135 135 108 185Q99 201 92 214T86 247Z" />
<glyph unicode="|" horiz-adv-x="350" d="M295 773L103 -314Q99 -330 89 -344T50 -358Q25 -358 11 -342T0 -304L193 786Q197 808 214 820T249 833Q271 833 285 818T295 773Z" />
<glyph unicode="}" horiz-adv-x="478" d="M325 185Q322 169 312 160T288 136Q265 117 253 98T233 54Q228 32 226 -3T222 -79T215 -156T196 -221Q182 -253 157 -278T105 -321T56 -349Q32 -363 9 -357T-20 -330Q-24 -313 -14 -300T17 -277Q47 -265 72 -247T114 -191Q124
-168 128 -134T134 -63T137 9T144 68Q153 109 171 141T223 202Q201 238 196 273T198 351Q201 375 212 405T237 468T259 531T268 589Q267 617 257 636T231 670T200 696Q183 710 181 727T190 759Q204 777 225 772T264 751Q281 737 302 714T340 660T357 593Q358 563
350 529T329 461T305 395T289 339Q287 316 290 293T309 247Q319 231 324 217T325 185Z" />
<glyph unicode="~" horiz-adv-x="614" d="M326 171Q305 171 283 182T242 204T208 215Q194 215 184 209T157 195Q141 187 127 192T103 211T94 241Q94 257 105 266T138 285Q152 291 171 297T217 304Q240 304 262 294T304 272T336 261Q355 261 365 268T397 285Q413
293 428 287T452 268T462 241Q462 225 452 215T418 195Q402 188 380 180T326 171Z" />
<glyph unicode="&#xa0;" horiz-adv-x="335" />
<glyph unicode="&#xa1;" horiz-adv-x="315" d="M232 482L152 40Q149 21 132 11T98 0Q76 -1 61 11T49 48L128 489Q133 513 151 525T188 537Q205 536 220 522T232 482ZM222 656Q198 656 180 673T161 713Q161 736 179 754T222 772Q247 772 262 754T278 713Q278 691
263 674T222 656Z" />
<glyph unicode="&#xa2;" horiz-adv-x="359" d="M101 -187Q85 -187 76 -177T70 -154L207 538Q210 555 220 563T240 571Q252 571 261 562T266 533L130 -157Q129 -166 125 -176T101 -187ZM86 -5Q49 -5 24 20T-2 101Q-2 132 6 174T28 258T61 328Q96 380 160 401T304
418Q324 417 336 404T349 373Q349 356 336 342T304 329Q244 334 201 322T135 276Q125 262 117 241T103 197T93 154T89 121Q89 110 92 100T107 89Q121 89 139 102T175 132T206 166T224 191Q237 208 258 212T295 207Q310 198 311 180T303 145Q278 103 242 69T165
15T86 -5Z" />
<glyph unicode="&#xa3;" horiz-adv-x="557" d="M70 372Q72 391 84 403T122 416H372Q398 416 412 404T425 372Q424 353 411 341T372 328H121Q96 328 83 340T70 372ZM42 0Q15 0 6 11T0 36T10 60Q22 75 42 95T87 142T134 200T175 273Q188 304 193 340T196 405T186
447Q168 473 149 505T119 571T109 636Q111 671 132 698T193 748Q215 761 241 767T295 773Q353 773 408 751T499 696Q520 675 518 658T504 625Q493 612 470 610T423 629Q396 653 357 667T283 681Q252 681 231 670Q215 662 213 640Q212 615 228 581T275 501Q288 482
293 452T298 387T291 319T274 259Q254 211 224 164T158 74T92 0H42ZM61 0L99 91H351Q377 91 389 77T403 44Q403 23 389 12T351 0H61Z" />
<glyph unicode="&#xa5;" horiz-adv-x="581" d="M403 311H141Q117 311 102 323T85 355Q83 373 97 386T135 399H397Q420 399 435 386T452 355Q453 336 440 324T403 311ZM384 161H122Q98 161 83 174T66 206Q64 226 78 238T116 250H378Q401 250 416 238T434 206Q435
188 421 175T384 161ZM556 767Q572 757 576 738T564 697L279 314L235 411L312 520L483 753Q498 773 519 775T556 767ZM215 -1Q190 -1 176 14T166 51L233 434H337L269 43Q266 27 254 13T215 -1ZM123 771Q140 779 161 773T191 741L275 522L315 407L246 329L99 707Q90
730 98 746T123 771Z" />
<glyph unicode="&#xa6;" horiz-adv-x="348" d="M182 139L103 -312Q99 -328 89 -342T50 -356Q25 -356 11 -341T0 -303L79 146Q84 168 101 180T137 193Q158 193 172 179T182 139ZM294 772L216 330Q212 309 195 297T160 283Q139 282 124 297T113 337L192 783Q197
806 214 819T248 832Q269 832 284 817T294 772Z" />
<glyph unicode="&#xa9;" horiz-adv-x="1014" d="M497 -95Q401 -95 318 -59T170 41T70 188T34 368Q34 464 70 548T170 696T317 796T497 832Q593 832 676 796T824 696T924 548T960 368Q960 272 924 189T824 41T677 -59T497 -95ZM498 -1Q574 -1 641 27T758 107T837
225T866 368Q866 445 838 511T759 629T641 709T498 738Q421 738 354 709T236 629T157 511T128 368Q128 292 157 225T236 107T354 28T498 -1ZM417 143Q369 143 347 162T317 211T310 268Q310 291 313 318T319 366T323 392Q330 431 342 469T379 541T450 593T570 613Q591
613 608 611T632 603Q647 594 650 578T649 547T629 525Q619 519 603 519T570 519Q526 519 499 509T457 481T435 438T422 386Q419 370 416 350T410 308T407 270Q407 256 409 246T421 236Q437 236 455 253T508 320Q522 339 533 347T563 355Q580 355 590 346T604 322Q607
311 604 297T588 264Q546 202 508 173T417 143Z" />
<glyph unicode="&#xae;" horiz-adv-x="660" d="M310 484Q297 484 289 493T283 518L321 734Q323 746 332 753T353 761Q368 761 378 752T384 726L347 514Q345 501 335 493T310 484ZM440 484Q430 484 422 487T409 497L329 614L410 613L467 528Q476 515 470 502Q466
494 458 489T440 484ZM347 595L351 658Q365 658 383 658T416 663T432 675Q434 689 416 694T352 699L353 761Q393 761 428 753T483 727T498 675Q492 644 474 628T431 605T384 597T347 595ZM388 343Q331 343 282 364T195 423T136 510T115 617Q115 673 136 722T194
809T281 868T388 890Q445 890 494 869T581 810T640 723T662 617Q662 560 641 511T582 424T495 365T388 343ZM388 423Q441 423 484 449T554 520T580 617Q580 670 554 713T485 783T388 809Q335 809 292 783T222 714T196 617Q196 565 221 521T291 450T388 423Z" />
<glyph unicode="&#xb0;" horiz-adv-x="466" d="M234 484Q218 484 202 491T175 517T164 574Q164 617 176 653T199 708Q213 733 240 755T308 777Q356 777 381 755T407 691Q407 661 393 626T354 558T299 505T234 484ZM252 564Q261 564 273 574T296 601T314 636T323
670Q324 685 321 692T305 700Q295 700 286 695T268 676Q258 657 252 638T244 599Q243 586 244 575T252 564Z" />
<glyph unicode="&#xb1;" horiz-adv-x="581" d="M342 420L309 240Q306 220 292 209T261 198Q241 198 226 213T215 256L248 435Q252 456 266 466T296 477Q316 477 331 462T342 420ZM356 81H128Q103 81 90 93T76 125Q76 142 89 155T128 169H356Q379 169 393 156T408
125Q408 106 394 94T356 81ZM391 295H163Q139 295 125 307T110 339Q110 356 124 369T163 383H391Q415 383 429 370T443 339Q443 320 429 308T391 295Z" />
<glyph unicode="&#xb7;" horiz-adv-x="365" d="M147 149Q122 149 105 169T88 210Q88 235 105 252T147 269Q171 269 189 253T208 211Q208 188 190 169T147 149Z" />
<glyph unicode="&#xbf;" horiz-adv-x="656" d="M415 458L388 357Q341 360 309 347T255 313T222 265T203 216T195 176Q190 149 201 131T235 103T291 93Q331 93 356 109T394 151T413 206Q418 233 440 245T482 252Q498 248 506 233T510 189Q495 106 434 54T271 1Q216
1 172 27T106 95T92 187Q107 269 144 332T248 429T415 458ZM461 516L440 395Q437 378 422 368T389 357Q364 357 349 371T337 402L358 522Q362 550 382 561T422 569Q440 565 452 551T461 516ZM444 656Q419 656 402 674T384 717Q384 739 401 755T444 772Q467 772
483 756T500 716Q500 693 485 675T444 656Z" />
<glyph unicode="&#xd7;" horiz-adv-x="613" d="M465 327L160 70Q139 54 117 56T81 73Q69 87 69 105T87 138L393 396Q411 412 432 410T467 396Q482 383 482 364T465 327ZM207 390L422 137Q438 119 435 101T418 68Q404 57 383 57T346 73L128 330Q114 347 116 364T130
395Q144 409 166 409T207 390Z" />
<glyph unicode="&#xf7;" horiz-adv-x="612" d="M406 190H145Q119 190 106 203T92 234T105 265T145 279H406Q433 279 445 266T458 235T445 204T406 190ZM249 32Q225 32 209 49T192 89Q192 111 208 128T249 145Q272 145 291 129T310 89Q310 66 292 49T249 32ZM302
324Q278 324 261 342T243 382Q243 404 260 420T302 437Q325 437 343 421T362 382Q362 358 344 341T302 324Z" />
<glyph unicode="&#x2013;" horiz-adv-x="623" d="M417 189H147Q122 189 108 203T93 236Q93 255 107 267T147 280H417Q442 280 456 268T471 236Q471 217 457 203T417 189Z" />
<glyph unicode="&#x2014;" horiz-adv-x="745" d="M533 189H150Q125 189 109 203T92 236Q92 254 108 267T150 280H533Q561 280 576 267T592 236Q592 217 576 203T533 189Z" />
<glyph unicode="&#x2018;" horiz-adv-x="352" d="M210 556Q198 556 186 561T166 580T161 612L183 731Q186 750 202 761T236 772Q259 772 274 757T286 715L265 597Q263 577 246 567T210 556Z" />
<glyph unicode="&#x2019;" horiz-adv-x="352" d="M210 556Q198 556 186 561T166 580T161 612L183 731Q186 750 202 761T236 772Q259 772 274 757T286 715L265 597Q263 577 246 567T210 556Z" />
<glyph unicode="&#x201c;" horiz-adv-x="469" d="M184 556Q162 556 147 571T136 612L156 726Q160 748 177 760T212 772Q233 772 248 757T259 714L238 600Q235 579 218 568T184 556ZM356 556Q344 556 332 561T312 580T307 612L329 731Q333 750 349 761T383 772Q405
772 420 757T432 715L411 597Q409 577 392 567T356 556Z" />
<glyph unicode="&#x201d;" horiz-adv-x="469" d="M184 556Q162 556 147 571T136 612L156 726Q160 748 177 760T212 772Q233 772 248 757T259 714L238 600Q235 579 218 568T184 556ZM356 556Q344 556 332 561T312 580T307 612L329 731Q333 750 349 761T383 772Q405
772 420 757T432 715L411 597Q409 577 392 567T356 556Z" />
<glyph unicode="&#x2022;" horiz-adv-x="470" d="M234 309Q203 309 179 325T141 368T126 422Q126 452 140 476T180 516T235 532Q265 532 290 517T332 477T348 422Q348 392 332 367T290 325T234 309Z" />
</font>
</defs>
</svg>
